<svg width="24" height="24" viewBox="0 0 24 24" fill="#ffffff" xmlns="http://www.w3.org/2000/svg"><path d="M11.2 8h1.6c-.05 4.5.25 9 .95 14h-3.5c.7-5 1-9.5.95-14z"/><circle cx="9" cy="5.4" r="3.3"/><circle cx="12" cy="3.8" r="3.7"/><circle cx="15" cy="5.4" r="3.3"/><circle cx="10.6" cy="7.3" r="3"/><circle cx="13.4" cy="7.3" r="3"/><path d="M10 10 6.5 9.4l.2 1.7z"/><circle cx="5" cy="10.6" r="2.3"/><circle cx="7.1" cy="10.4" r="2.3"/><circle cx="5.9" cy="12" r="2"/><path d="M13.9 10.4 17.5 9.8l-.2 1.7z"/><circle cx="17" cy="10.9" r="2.3"/><circle cx="19" cy="10.7" r="2.2"/><circle cx="18" cy="12.3" r="1.9"/><path d="M10.6 15.4 7.4 14.4l-.1 1.7z"/><circle cx="6.3" cy="15.5" r="2.2"/><circle cx="8.3" cy="15.8" r="2.2"/><circle cx="7.2" cy="17.2" r="1.9"/><path d="M13.4 15.6 16.6 14.6l.1 1.7z"/><circle cx="15.7" cy="15.8" r="2.1"/><circle cx="17.6" cy="16" r="2"/><circle cx="16.6" cy="17.4" r="1.8"/></svg>